<svg width="407" height="162" viewBox="0 0 407 162" fill="none" xmlns="http://www.w3.org/2000/svg">
<path d="M0 108.833V105.463L11.7182 116.985V149.784H45.0727L56.7736 161.29L11.7182 161.29H0.0172033V149.784V108.833H0Z" fill="#F93C00"/>
<path fill-rule="evenodd" clip-rule="evenodd" d="M395.155 44.2161L395.155 11.5942L361.98 11.5942L350.19 0.000195177L395.155 0H406.946L406.946 11.5942L406.946 52.8588H406.963V55.8274L395.155 44.2161Z" fill="#F93C00"/>
<path d="M39.7242 38.4893H75.3561C84.2943 38.4893 92.2259 40.2608 99.151 43.8039C106.076 47.3469 111.431 52.3394 115.216 58.7814C119.081 65.1428 121.013 72.4705 121.013 80.7644C121.013 89.0584 119.081 96.4264 115.216 102.868C111.431 109.23 106.076 114.182 99.151 117.725C92.2259 121.268 84.2943 123.04 75.3561 123.04H39.7242V38.4893ZM74.6314 112.531C81.476 112.531 87.475 111.203 92.6286 108.545C97.8626 105.888 101.889 102.184 104.707 97.4329C107.526 92.6015 108.935 87.0453 108.935 80.7644C108.935 74.4836 107.526 68.9677 104.707 64.2167C101.889 59.3853 97.8626 55.6409 92.6286 52.9836C87.475 50.3263 81.476 48.9977 74.6314 48.9977H51.8029V112.531H74.6314Z" fill="white"/>
<path d="M134.804 59.0229H146.399V123.04H134.804V59.0229ZM140.601 46.7028C138.347 46.7028 136.454 45.978 134.924 44.5286C133.475 43.0792 132.75 41.3076 132.75 39.214C132.75 37.1204 133.475 35.3489 134.924 33.8994C136.454 32.3695 138.347 31.6045 140.601 31.6045C142.856 31.6045 144.708 32.3292 146.158 33.7786C147.688 35.1475 148.453 36.8788 148.453 38.9724C148.453 41.1466 147.688 42.9986 146.158 44.5286C144.708 45.978 142.856 46.7028 140.601 46.7028Z" fill="white"/>
<path d="M183.879 123.764C178.645 123.764 173.612 123.08 168.78 121.711C163.949 120.262 160.164 118.45 157.427 116.276L162.258 107.096C165.076 109.109 168.499 110.719 172.525 111.927C176.551 113.135 180.617 113.739 184.724 113.739C194.87 113.739 199.943 110.84 199.943 105.042C199.943 103.11 199.259 101.58 197.89 100.453C196.521 99.3252 194.79 98.52 192.696 98.0369C190.683 97.4732 187.784 96.8693 183.999 96.2251C178.846 95.4198 174.618 94.4938 171.317 93.447C168.096 92.4002 165.318 90.6286 162.983 88.1324C160.648 85.6361 159.48 82.1334 159.48 77.624C159.48 71.8263 161.896 67.1961 166.727 63.7336C171.559 60.1905 178.041 58.419 186.174 58.419C190.441 58.419 194.709 58.9424 198.977 59.9892C203.245 61.036 206.748 62.4452 209.485 64.2167L204.533 73.3965C199.299 70.0145 193.139 68.3235 186.053 68.3235C181.141 68.3235 177.397 69.1287 174.82 70.7392C172.243 72.3497 170.955 74.4836 170.955 77.1409C170.955 79.2345 171.679 80.8852 173.129 82.0931C174.578 83.301 176.35 84.1867 178.443 84.7504C180.617 85.3141 183.637 85.9582 187.502 86.683C192.656 87.5687 196.803 88.535 199.943 89.5818C203.164 90.5481 205.902 92.2391 208.157 94.6548C210.411 97.0706 211.539 100.453 211.539 104.801C211.539 110.599 209.042 115.229 204.05 118.691C199.138 122.073 192.414 123.764 183.879 123.764Z" fill="white"/>
<path d="M250.429 123.764C244.068 123.764 238.35 122.355 233.277 119.537C228.204 116.718 224.218 112.853 221.32 107.941C218.501 102.949 217.092 97.3121 217.092 91.0313C217.092 84.7504 218.501 79.154 221.32 74.242C224.218 69.2495 228.204 65.3843 233.277 62.6465C238.35 59.8282 244.068 58.419 250.429 58.419C256.79 58.419 262.467 59.8282 267.46 62.6465C272.533 65.3843 276.479 69.2495 279.297 74.242C282.196 79.154 283.645 84.7504 283.645 91.0313C283.645 97.3121 282.196 102.949 279.297 107.941C276.479 112.853 272.533 116.718 267.46 119.537C262.467 122.355 256.79 123.764 250.429 123.764ZM250.429 113.618C254.536 113.618 258.2 112.692 261.421 110.84C264.722 108.908 267.299 106.25 269.151 102.868C271.003 99.4058 271.929 95.4601 271.929 91.0313C271.929 86.6024 271.003 82.697 269.151 79.315C267.299 75.8525 264.722 73.1952 261.421 71.3431C258.2 69.4911 254.536 68.565 250.429 68.565C246.322 68.565 242.618 69.4911 239.317 71.3431C236.096 73.1952 233.519 75.8525 231.586 79.315C229.734 82.697 228.808 86.6024 228.808 91.0313C228.808 95.4601 229.734 99.4058 231.586 102.868C233.519 106.25 236.096 108.908 239.317 110.84C242.618 112.692 246.322 113.618 250.429 113.618Z" fill="white"/>
<path d="M320.094 42.2337C313.169 42.2337 309.707 45.978 309.707 53.4668V59.0229H328.308V68.565H309.948V123.04H298.353V68.565H287.482V59.0229H298.353V53.346C298.353 46.9846 300.205 41.9518 303.909 38.2477C307.613 34.5436 312.807 32.6916 319.49 32.6916C322.067 32.6916 324.483 33.0137 326.738 33.6579C328.992 34.302 330.925 35.2281 332.535 36.4359L329.032 45.2533C326.375 43.2402 323.396 42.2337 320.094 42.2337Z" fill="white"/>
<path d="M372.218 119.295C370.527 120.745 368.434 121.872 365.937 122.677C363.441 123.402 360.864 123.764 358.207 123.764C351.765 123.764 346.773 122.033 343.23 118.57C339.686 115.108 337.915 110.156 337.915 103.714V68.565H327.044V59.0229H337.915V45.0117H349.51V59.0229H367.87V68.565H349.51V103.231C349.51 106.693 350.356 109.35 352.047 111.203C353.818 113.055 356.315 113.981 359.536 113.981C363.079 113.981 366.098 112.974 368.595 110.961L372.218 119.295Z" fill="white"/>
</svg>
